<?xml version="1.0" encoding="UTF-8"?>
<!DOCTYPE svg PUBLIC "-//W3C//DTD SVG 1.1//EN" "http://www.w3.org/Graphics/SVG/1.1/DTD/svg11.dtd">
<svg xmlns="http://www.w3.org/2000/svg" version="1.1" width="199px" height="308px" style="shape-rendering:geometricPrecision; text-rendering:geometricPrecision; image-rendering:optimizeQuality; fill-rule:evenodd; clip-rule:evenodd" xmlns:xlink="http://www.w3.org/1999/xlink">
<g><path style="opacity:0.997" d="M 146.5,-0.5 C 150.5,-0.5 154.5,-0.5 158.5,-0.5C 165.563,2.04782 171.397,6.38115 176,12.5C 181.275,24.0506 186.275,35.7173 191,47.5C 193.535,55.0101 195.368,62.6768 196.5,70.5C 195.732,71.2625 195.232,72.2625 195,73.5C 180.908,72.3438 166.742,72.1771 152.5,73C 149.389,73.444 146.723,74.7773 144.5,77C 143.663,78.0113 143.33,79.1779 143.5,80.5C 142.833,97.3381 142.167,114.338 141.5,131.5C 139.995,134.522 138.661,137.522 137.5,140.5C 129.107,145.942 120.774,145.776 112.5,140C 110.623,137.749 109.123,135.249 108,132.5C 107.667,115.5 107.333,98.5 107,81.5C 106.055,76.7219 103.222,73.7219 98.5,72.5C 98.5,50.5 98.5,28.5 98.5,6.5C 95.3918,6.62539 93.3918,5.29206 92.5,2.5C 94.5447,3.45862 96.7114,4.12529 99,4.5C 107.438,0.725601 116.271,-0.441066 125.5,1C 128.449,2.76084 131.616,3.92751 135,4.5C 138.845,2.72338 142.678,1.05672 146.5,-0.5 Z"/></g>
<g><path style="opacity:1" d="M 39.5,-0.5 C 43.5,-0.5 47.5,-0.5 51.5,-0.5C 54.6174,1.80731 58.1174,3.47397 62,4.5C 71.9705,0.116545 82.1372,-0.550122 92.5,2.5C 93.3918,5.29206 95.3918,6.62539 98.5,6.5C 98.5,28.5 98.5,50.5 98.5,72.5C 94.5812,73.4594 91.9145,75.7928 90.5,79.5C 89.6753,83.6472 89.1753,87.9805 89,92.5C 87.5298,95.7639 86.3631,99.0973 85.5,102.5C 79.1842,109.78 71.5175,111.28 62.5,107C 60.6763,106.34 59.343,105.173 58.5,103.5C 57.9078,100.309 56.7411,97.3093 55,94.5C 54.1329,89.0276 53.2996,83.6943 52.5,78.5C 51.1225,76.1255 49.1225,74.4588 46.5,73.5C 31.1811,72.5006 15.8478,72.1673 0.5,72.5C 1.36183,65.0502 2.86183,57.7169 5,50.5C 10.3333,37.8333 15.6667,25.1667 21,12.5C 25.6892,5.96427 31.8559,1.63094 39.5,-0.5 Z"/></g>
<g><path style="opacity:1" d="M 196.5,70.5 C 197.126,76.2678 197.793,81.9345 198.5,87.5C 198.5,87.8333 198.5,88.1667 198.5,88.5C 197.167,88.8333 197.167,89.1667 198.5,89.5C 198.5,89.8333 198.5,90.1667 198.5,90.5C 197.985,99.185 196.485,107.852 194,116.5C 187.884,132.067 181.217,147.4 174,162.5C 166.236,182.655 162.069,203.488 161.5,225C 162.113,247.358 162.446,269.858 162.5,292.5C 163.399,299.676 160.732,304.676 154.5,307.5C 117.167,307.5 79.8333,307.5 42.5,307.5C 40.8113,306.696 39.1446,305.696 37.5,304.5C 35.9071,300.691 35.0738,296.691 35,292.5C 34.6667,262.5 34.3333,232.5 34,202.5C 31.2685,188.907 27.6018,175.574 23,162.5C 12.5838,143.362 4.75042,123.362 -0.5,102.5C -0.5,92.8333 -0.5,83.1667 -0.5,73.5C 0.166667,73.5 0.5,73.1667 0.5,72.5C 15.8478,72.1673 31.1811,72.5006 46.5,73.5C 49.1225,74.4588 51.1225,76.1255 52.5,78.5C 52.2427,84.8979 52.7427,91.2312 54,97.5C 54.7918,100.106 56.2918,102.106 58.5,103.5C 59.343,105.173 60.6763,106.34 62.5,107C 71.5175,111.28 79.1842,109.78 85.5,102.5C 88.0283,100.11 89.5283,97.1105 90,93.5C 90.4992,88.8452 90.6658,84.1785 90.5,79.5C 91.9145,75.7928 94.5812,73.4594 98.5,72.5C 103.222,73.7219 106.055,76.7219 107,81.5C 107.333,98.5 107.667,115.5 108,132.5C 109.123,135.249 110.623,137.749 112.5,140C 120.774,145.776 129.107,145.942 137.5,140.5C 139.86,138.287 141.694,135.621 143,132.5C 143.5,115.17 143.667,97.8365 143.5,80.5C 143.33,79.1779 143.663,78.0113 144.5,77C 146.723,74.7773 149.389,73.444 152.5,73C 166.742,72.1771 180.908,72.3438 195,73.5C 195.232,72.2625 195.732,71.2625 196.5,70.5 Z"/></g>
<g><path style="opacity:.5" d="M 143.5,80.5 C 143.667,97.8365 143.5,115.17 143,132.5C 141.694,135.621 139.86,138.287 137.5,140.5C 138.661,137.522 139.995,134.522 141.5,131.5C 142.167,114.338 142.833,97.3381 143.5,80.5 Z"/></g>
<g><path style="opacity:1" d="M 90.5,79.5 C 90.6658,84.1785 90.4992,88.8452 90,93.5C 89.5283,97.1105 88.0283,100.11 85.5,102.5C 86.3631,99.0973 87.5298,95.7639 89,92.5C 89.1753,87.9805 89.6753,83.6472 90.5,79.5 Z"/></g>
<g><path style="opacity:1" d="M 52.5,78.5 C 53.2996,83.6943 54.1329,89.0276 55,94.5C 56.7411,97.3093 57.9078,100.309 58.5,103.5C 56.2918,102.106 54.7918,100.106 54,97.5C 52.7427,91.2312 52.2427,84.8979 52.5,78.5 Z"/></g>
</svg>
