<?xml version="1.0" encoding="UTF-8"?>
<!DOCTYPE svg PUBLIC "-//W3C//DTD SVG 1.1//EN" "http://www.w3.org/Graphics/SVG/1.1/DTD/svg11.dtd">
<svg xmlns="http://www.w3.org/2000/svg" version="1.1" width="265px" height="256px" style="shape-rendering:geometricPrecision; text-rendering:geometricPrecision; image-rendering:optimizeQuality; fill-rule:evenodd; clip-rule:evenodd" xmlns:xlink="http://www.w3.org/1999/xlink">
<g><path style="opacity:0.833" d="M 148.5,3.5 C 157.753,2.28862 164.086,5.95528 167.5,14.5C 167.333,15.1667 167.167,15.8333 167,16.5C 163.034,19.464 159.367,22.7974 156,26.5C 154.109,30.6111 153.109,34.9444 153,39.5C 151.157,36.9779 149.99,34.1445 149.5,31C 150.945,26.1697 152.278,21.3364 153.5,16.5C 153.676,11.5273 151.676,7.69393 147.5,5C 148.056,4.61742 148.389,4.11742 148.5,3.5 Z"/></g>
<g><path style="opacity:0.976" d="M 172.5,7.5 C 186.903,11.3989 196.736,20.3989 202,34.5C 208.124,55.4587 202.624,72.6254 185.5,86C 179.925,89.455 173.925,91.7883 167.5,93C 191.464,96.4097 208.297,86.9097 218,64.5C 218.993,60.5577 219.66,56.5577 220,52.5C 252.939,88.2575 262.939,129.591 250,176.5C 246.032,186.438 241.032,195.771 235,204.5C 234.776,195.13 234.109,185.796 233,176.5C 226.791,204.283 212.124,226.283 189,242.5C 188.833,242 188.667,241.5 188.5,241C 192.722,234.056 196.556,226.889 200,219.5C 201.854,215.292 202.854,210.959 203,206.5C 183.735,235.051 156.901,250.551 122.5,253C 136.731,245.608 149.065,235.774 159.5,223.5C 159.167,223.167 158.833,222.833 158.5,222.5C 149.42,226.434 140.087,228.434 130.5,228.5C 151.902,213.355 161.069,192.689 158,166.5C 147.326,202.187 123.493,218.354 86.5,215C 79.1209,213.318 72.1209,210.652 65.5,207C 67.9113,205.417 70.578,204.417 73.5,204C 63.2013,194.306 60.368,182.806 65,169.5C 70.4635,162.57 77.2969,160.737 85.5,164C 86.5728,165.313 87.2395,166.813 87.5,168.5C 83.1996,179.878 87.1996,186.545 99.5,188.5C 104.337,184.171 107.67,178.837 109.5,172.5C 110.325,176.122 110.825,179.789 111,183.5C 115.274,179.789 118.44,175.289 120.5,170C 124.88,169.934 128.713,171.434 132,174.5C 126.736,145.222 109.903,125.722 81.5,116C 68.5888,111.927 55.5888,111.594 42.5,115C 40.6024,118.621 38.1024,121.788 35,124.5C 33.7681,121.7 33.1015,118.7 33,115.5C 31.7432,117.746 29.9099,119.079 27.5,119.5C 27.8134,116.753 27.48,114.086 26.5,111.5C 20.3595,109.194 16.5261,104.86 15,98.5C 5.69601,94.5515 3.02934,87.8849 7,78.5C 8.4578,76.04 10.2911,73.8734 12.5,72C 20.5799,69.6449 28.5799,66.9782 36.5,64C 44.4623,57.7065 52.129,51.0398 59.5,44C 69.8268,37.3358 81.1602,33.6691 93.5,33C 114.694,30.8131 135.028,33.9798 154.5,42.5C 154.079,37.7534 154.913,33.0868 157,28.5C 161.435,23.9436 166.102,19.6102 171,15.5C 172.252,12.9865 172.752,10.3198 172.5,7.5 Z"/></g>
</svg>
