<?xml version="1.0" encoding="UTF-8"?>
<!DOCTYPE svg PUBLIC "-//W3C//DTD SVG 1.1//EN" "http://www.w3.org/Graphics/SVG/1.1/DTD/svg11.dtd">
<svg xmlns="http://www.w3.org/2000/svg" version="1.1" width="192px" height="192px" style="shape-rendering:geometricPrecision; text-rendering:geometricPrecision; image-rendering:optimizeQuality; fill-rule:evenodd; clip-rule:evenodd" xmlns:xlink="http://www.w3.org/1999/xlink">
<g><path style="opacity:0.959" d="M 64.5,7.5 C 73.7094,6.27852 81.7094,8.77852 88.5,15C 116.178,16.4229 139.011,27.5895 157,48.5C 162.847,55.3482 164.514,63.0149 162,71.5C 159.222,74.8071 155.722,76.9738 151.5,78C 129.776,79.2785 109.276,74.7785 90,64.5C 59.2754,74.615 48.6087,95.2817 58,126.5C 62.2769,136.246 68.7769,144.079 77.5,150C 78.3317,150.688 78.9984,150.521 79.5,149.5C 73.9926,143.435 71.4926,136.768 72,129.5C 84.578,144.408 100.411,153.908 119.5,158C 124.833,158.667 130.167,158.667 135.5,158C 127.276,156.225 120.276,152.392 114.5,146.5C 130.692,144.497 145.025,138.33 157.5,128C 152.289,129.129 146.956,129.962 141.5,130.5C 139.5,130.167 137.5,129.833 135.5,129.5C 161.81,110.061 171.643,84.3939 165,52.5C 174.399,63.0903 177.733,75.4236 175,89.5C 173.493,95.0149 171.826,100.348 170,105.5C 175.401,99.3647 179.235,92.3647 181.5,84.5C 182.5,84.5 183.5,84.5 184.5,84.5C 186.868,109.597 177.535,129.097 156.5,143C 165.865,140.647 174.198,136.147 181.5,129.5C 181.833,129.833 182.167,130.167 182.5,130.5C 170.265,159.559 148.598,177.059 117.5,183C 68.5169,185.104 34.6836,163.604 16,118.5C 9.63639,113.198 6.63639,106.531 7,98.5C 9.64626,95.9033 11.1463,92.7366 11.5,89C 10.1383,83.0813 8.47163,77.248 6.5,71.5C 7.47019,68.2263 8.97019,65.2263 11,62.5C 15,59.8333 18.3333,56.5 21,52.5C 21.1223,45.6897 22.1223,39.0231 24,32.5C 28.9077,27.9737 34.7411,25.807 41.5,26C 43.9494,25.2754 46.2827,24.2754 48.5,23C 53.0676,16.9306 58.401,11.7639 64.5,7.5 Z M 114.5,44.5 C 119.159,44.0146 120.492,45.848 118.5,50C 113.728,50.8104 112.395,48.9771 114.5,44.5 Z"/></g>
</svg>
