<?xml version="1.0" encoding="UTF-8"?>
<!DOCTYPE svg PUBLIC "-//W3C//DTD SVG 1.1//EN" "http://www.w3.org/Graphics/SVG/1.1/DTD/svg11.dtd">
<svg xmlns="http://www.w3.org/2000/svg" version="1.1" width="512px" height="512px" style="shape-rendering:geometricPrecision; text-rendering:geometricPrecision; image-rendering:optimizeQuality; fill-rule:evenodd; clip-rule:evenodd" xmlns:xlink="http://www.w3.org/1999/xlink">
<g><path style="opacity:0.965" d="M 233.5,-0.5 C 248.167,-0.5 262.833,-0.5 277.5,-0.5C 377.805,11.9821 449.305,63.9821 492,155.5C 502.296,180.684 508.796,206.684 511.5,233.5C 511.5,248.167 511.5,262.833 511.5,277.5C 499.016,377.807 447.016,449.307 355.5,492C 330.313,502.297 304.313,508.797 277.5,511.5C 262.833,511.5 248.167,511.5 233.5,511.5C 133.195,499.018 61.6947,447.018 19,355.5C 8.70393,330.316 2.20393,304.316 -0.5,277.5C -0.5,262.833 -0.5,248.167 -0.5,233.5C 11.9842,133.193 63.9842,61.693 155.5,19C 180.687,8.70332 206.687,2.20332 233.5,-0.5 Z M 242.5,31.5 C 334.248,30.4394 403.748,68.7728 451,146.5C 490.125,222.233 488.792,297.233 447,371.5C 398.95,444.783 330.783,480.616 242.5,479C 161.932,471.675 101.099,433.508 60,364.5C 22,291.833 22,219.167 60,146.5C 101.248,77.4769 162.081,39.1435 242.5,31.5 Z"/></g>
<g><path style="opacity:0.979" d="M 238.5,53.5 C 297.529,50.0064 348.863,67.8397 392.5,107C 370.29,108.374 357.957,120.207 355.5,142.5C 355.941,149.086 357.441,155.419 360,161.5C 369.103,177.603 377.77,193.936 386,210.5C 394.121,232.712 394.454,255.046 387,277.5C 377.051,311.342 366.718,345.009 356,378.5C 331.692,305.909 307.192,233.409 282.5,161C 288.793,159.977 295.126,159.311 301.5,159C 307.876,159.327 311.876,156.493 313.5,150.5C 312.647,145.151 309.48,142.484 304,142.5C 269,146.5 234,146.5 199,142.5C 190.628,144.245 188.462,148.911 192.5,156.5C 201.25,158.631 210.083,160.298 219,161.5C 229.571,189.881 239.737,218.381 249.5,247C 235.533,291.402 220.866,335.568 205.5,379.5C 180.043,306.795 155.376,233.795 131.5,160.5C 140.639,160.157 149.639,158.99 158.5,157C 162.423,152.739 162.423,148.406 158.5,144C 156.645,143.578 154.811,143.078 153,142.5C 130.893,145.014 108.726,145.68 86.5,144.5C 123.166,91.1523 173.833,60.819 238.5,53.5 Z"/></g>
<g><path style="opacity:0.964" d="M 432.5,158.5 C 458.62,207.012 464.453,258.012 450,311.5C 434.548,363.444 403.548,403.111 357,430.5C 379.368,363.065 402.368,295.731 426,228.5C 432.467,205.564 434.634,182.231 432.5,158.5 Z"/></g>
<g><path style="opacity:0.969" d="M 70.5,172.5 C 103.482,259.932 135.816,347.766 167.5,436C 167.167,436.5 166.833,437 166.5,437.5C 100.255,402.411 62.7546,347.411 54,272.5C 51.1822,237.761 56.6822,204.428 70.5,172.5 Z"/></g>
<g><path style="opacity:0.976" d="M 258.5,272.5 C 280.472,329.639 301.806,387.139 322.5,445C 322.095,445.945 321.428,446.612 320.5,447C 280.477,459.839 240.144,460.839 199.5,450C 198.446,448.612 198.28,447.112 199,445.5C 218.94,387.847 238.773,330.181 258.5,272.5 Z"/></g>
</svg>
